<svg width="163" height="175" viewBox="0 0 163 175" fill="none" xmlns="http://www.w3.org/2000/svg">
<rect width="163" height="175" fill="#E5E5E5"/>
<rect width="77.0004" height="173.427" transform="matrix(0.999973 -0.00732884 0.00608295 0.999982 0.639893 1.57584)" fill="#6C733D"/>
<rect width="84.0004" height="173.427" transform="matrix(0.999973 -0.00732884 0.00608295 0.999982 77.6382 1.01152)" fill="#9DA65D"/>
<path d="M87.3005 64.3459L101.252 77.6881L138.248 77.575L138.293 92.0124L28.8087 92.347L28.7645 77.9096L82.9049 77.7441L28.6159 29.2585L28.5625 11.8132L77.0446 54.7522L138.036 8.09485L138.089 25.3897L87.3005 64.3459Z" fill="black"/>
<path d="M97.8105 100.045L79.6311 163.134L65.4262 163.581L92.0317 81.3429L102.629 81.0099L134.647 161.405L120.442 161.852L97.8105 100.045Z" fill="black"/>
</svg>
